{
  "asset": {
    "generator": "Khronos glTF Blender I/O v3.2.40",
    "version": "2.0"
  },
  "scene": 0,
  "scenes": [
    {
      "name": "Scene",
      "nodes": [0]
    }
  ],
  "nodes": [
    {
      "mesh": 0,
      "name": "Clouds",
      "scale": [378.8280334472656, 378.8280334472656, 378.8280334472656],
      "translation": [0, -57.60128402709961, 0]
    }
  ],
  "materials": [
    {
      "alphaMode": "BLEND",
      "doubleSided": true,
      "name": "Sky",
      "pbrMetallicRoughness": {
        "baseColorFactor": [1, 1, 1, 0.48571425676345825],
        "baseColorTexture": {
          "index": 0
        },
        "metallicFactor": 0,
        "roughnessFactor": 0
      }
    }
  ],
  "meshes": [
    {
      "name": "Sphere",
      "primitives": [
        {
          "attributes": {
            "POSITION": 0,
            "NORMAL": 1,
            "TEXCOORD_0": 2
          },
          "indices": 3,
          "material": 0
        }
      ]
    }
  ],
  "textures": [
    {
      "sampler": 0,
      "source": 0
    }
  ],
  "images": [
    {
      "bufferView": 4,
      "mimeType": "image/png",
      "name": "sky_texture_d2"
    }
  ],
  "accessors": [
    {
      "bufferView": 0,
      "componentType": 5126,
      "count": 299,
      "max": [0.9999997019767761, 0.7252602577209473, 1.0124481916427612],
      "min": [-0.9999990463256836, -0.01521901786327362, -0.9875499606132507],
      "type": "VEC3"
    },
    {
      "bufferView": 1,
      "componentType": 5126,
      "count": 299,
      "type": "VEC3"
    },
    {
      "bufferView": 2,
      "componentType": 5126,
      "count": 299,
      "type": "VEC2"
    },
    {
      "bufferView": 3,
      "componentType": 5123,
      "count": 1440,
      "type": "SCALAR"
    }
  ],
  "bufferViews": [
    {
      "buffer": 0,
      "byteLength": 3588,
      "byteOffset": 0
    },
    {
      "buffer": 0,
      "byteLength": 3588,
      "byteOffset": 3588
    },
    {
      "buffer": 0,
      "byteLength": 2392,
      "byteOffset": 7176
    },
    {
      "buffer": 0,
      "byteLength": 2880,
      "byteOffset": 9568
    },
    {
      "buffer": 0,
      "byteLength": 2410055,
      "byteOffset": 12448
    }
  ],
  "samplers": [
    {
      "magFilter": 9729,
      "minFilter": 9987
    }
  ],
  "buffers": [
    {
      "byteLength": 2422504,
      "uri": "data:application/octet-stream;base64,"
    }
  ]
}
